<svg width="691" height="615" viewBox="0 0 691 615" fill="none" xmlns="http://www.w3.org/2000/svg">
<g clip-path="url(#clip0_102_2)">
<path d="M691 0H0V615H691V0Z" fill="black"/>
<path d="M376.234 97.7332C401.564 108.764 437.704 132.479 436.779 137.167C436.779 138.546 426.894 141.855 415.155 144.612C369.131 155.091 323.414 179.358 301.173 205.555C277.08 233.683 267.505 257.674 264.416 297.659C263.181 311.997 261.327 323.58 260.092 323.58C255.766 323.58 235.997 286.352 230.746 268.427C220.553 234.234 229.511 185.149 251.442 150.403C275.535 112.624 318.78 81.4634 341.948 85.3241C347.199 86.1513 362.643 91.6665 376.234 97.7332ZM224.877 154.539C214.375 185.425 212.213 197.833 212.213 231.2C212.213 261.259 213.448 269.807 219.317 284.974C231.982 318.065 262.562 350.052 299.321 369.355L319.707 379.834L309.513 382.317C295.614 385.626 254.531 380.386 234.452 372.664C168.35 347.847 118.309 284.422 118 225.133C118 209.691 118.927 206.934 128.194 197.833C140.549 184.873 164.952 171.085 195.223 159.228C221.788 148.749 227.349 147.921 224.877 154.539ZM507.514 163.364C518.326 166.397 533.461 172.464 541.184 176.876C556.629 185.7 560.953 193.697 564.66 222.1C566.514 236.164 561.261 288.558 557.555 294.074C556.629 295.176 544.581 286.628 530.682 274.771C501.646 249.952 480.024 237.818 447.898 227.891C404.653 214.379 353.377 219.895 307.043 242.782C296.232 248.021 286.656 251.606 285.729 250.78C283.567 248.849 297.159 228.167 312.294 211.345C333.608 187.079 378.706 164.743 419.171 158.124C441.412 154.539 484.348 157.021 507.514 163.364ZM432.763 236.716C488.672 248.573 535.933 286.628 561.261 340.401C567.749 353.913 570.221 364.116 571.456 383.695L573 409.341L562.498 419.268C556.629 424.507 544.581 433.331 535.623 438.571C517.399 449.05 470.757 467.525 467.358 465.871C466.123 465.044 468.285 452.911 472.301 438.847C481.259 407.686 482.494 366.598 474.773 341.78C463.651 304.277 438.323 274.219 398.785 251.33C385.193 243.61 374.382 236.164 374.382 234.785C374.382 231.2 411.449 232.303 432.763 236.716ZM444.5 311.447C450.06 320.546 456.856 335.712 459.635 345.64C466.432 369.631 464.269 409.341 455.003 433.883C440.793 470.834 409.595 507.51 378.706 523.781C360.79 533.156 343.183 532.053 315.691 519.644C290.98 508.613 249.28 481.037 252.677 478.28C254.221 477.177 264.106 474.143 274.3 471.662C307.351 463.664 327.738 455.944 351.523 441.604C399.712 412.926 426.584 366.322 426.894 311.723C426.894 288.558 430.291 288.558 444.5 311.447ZM201.71 372.664C228.584 386.728 252.369 393.346 282.64 394.725C317.853 396.379 340.404 391.968 373.764 377.077C388.282 370.458 400.947 365.77 401.874 366.598C405.58 369.907 386.428 395.553 366.659 413.476C332.064 444.638 290.671 459.253 236.924 459.529C187.501 459.529 143.947 444.913 131.9 423.955C126.649 414.58 125.722 408.238 126.031 374.595C126.34 352.259 127.885 332.679 130.047 327.992L133.445 320.27L159.083 341.78C173.292 353.913 192.443 367.701 201.71 372.664Z" fill="#F7F8FB"/>
</g>
<defs>
<clipPath id="clip0_102_2">
<rect width="691" height="615" fill="white"/>
</clipPath>
</defs>
</svg>
