<svg width="1099" height="323" viewBox="0 0 1099 323" fill="none" xmlns="http://www.w3.org/2000/svg">
<rect width="1099" height="323" fill="#1E1E1E"/>
<rect width="1099" height="323" fill="black"/>
<path d="M87.6774 37.2729C61.7017 39.2176 48.4987 45.862 37.5918 62.2298C26.8284 78.4355 25.6803 85.0799 25.1063 140.179C24.3887 196.575 25.3933 209.864 31.7078 224.449C37.4483 237.414 48.9292 249.568 60.2666 254.592C67.1552 257.671 71.8911 258.481 90.4041 258.968L112.218 259.616V238.386V217.157H95.427C75.9094 217.157 70.3124 215.05 65.5766 205.813C62.8498 200.465 62.7063 197.548 62.7063 148.282C62.8498 90.7519 63.1369 88.6452 72.3216 83.2973C79.2102 79.2458 134.462 76.815 175.363 78.9217C211.671 80.7043 214.829 81.6767 219.278 91.8863C221.717 97.5583 222.004 102.582 222.004 149.093C222.004 217.157 223.009 215.05 190.719 216.184L171.058 216.995L152.688 230.445C142.642 237.9 129.439 247.624 123.412 251.999L112.218 260.102V280.683C112.218 292.189 112.648 301.427 113.222 301.427C114.084 301.427 131.161 289.272 155.845 270.798L170.197 260.102L193.158 259.13C212.246 258.319 217.699 257.509 224.444 254.592C240.948 247.299 254.868 228.015 258.313 207.433C260.896 192.686 261.614 150.227 260.178 116.681C258.743 85.2419 258.6 85.0799 253.577 73.4117C245.54 55.0993 230.902 42.2967 213.824 38.7314C203.778 36.7868 108.917 35.4903 87.6774 37.2729Z" fill="white"/>
<path d="M456.907 143.427V227.427H472.838H488.769V188.118C488.769 155.17 489.272 147.831 491.452 143.264C498.327 129.399 521.301 127.931 530.189 140.817C533.878 146.199 534.045 147.341 534.045 186.813V227.427H549.976H565.907V182.898C565.907 133.151 564.901 127.605 554.504 117.166C546.79 109.337 540.082 106.401 527.841 105.423C514.425 104.444 504.196 107.217 495.476 114.394L488.769 120.102V89.7645V59.4266H472.838H456.907V143.427Z" fill="white"/>
<path d="M370.321 69.6667C358.721 71.7126 345.614 78.7946 338.383 86.9782C325.125 101.772 320.907 116.25 320.907 148.355C320.907 182.978 326.18 199.817 340.944 213.666C358.721 230.348 392.015 234.44 415.517 222.794C431.637 214.768 444.593 196.984 446.852 179.358L447.907 171.962H434.198H420.338L419.434 176.211C415.366 194.152 403.465 203.437 385.386 203.437C369.417 203.279 358.118 195.568 353.297 181.562C350.134 171.804 350.134 126.637 353.297 116.722C357.365 104.604 365.199 97.5224 377.552 94.847C395.932 90.7552 413.106 100.355 418.228 117.824L420.94 126.322H434.348H447.907L446.852 118.926C442.333 84.4601 408.888 62.8996 370.321 69.6667Z" fill="white"/>
<path d="M765.907 149.348V227.427H801.454C820.983 227.427 841.121 226.64 846.156 225.695C870.261 221.13 884.907 204.759 884.907 182.248C884.907 167.451 877.431 155.33 864.921 149.505L859.124 146.672L865.531 139.273C872.854 130.93 875.753 123.059 875.753 111.568C875.753 95.0392 868.735 83.0755 854.699 75.9917C847.834 72.5286 845.698 72.3711 806.794 71.8989L765.907 71.4266V149.348ZM837.612 99.132C840.358 100.549 842.799 103.854 844.477 108.42C846.766 114.559 846.919 116.29 845.088 122.272C843.562 126.68 841.274 130.143 837.765 132.504C833.035 135.81 830.747 136.125 813.812 136.125H794.894V116.448V96.7707H813.965C828.001 96.7707 834.408 97.4004 837.612 99.132ZM840.969 161.312C849.512 163.83 854.394 170.757 854.394 180.516C854.394 185.082 853.326 190.276 851.801 192.952C847.224 200.823 841.884 202.24 817.169 202.24H794.894V180.989V159.737H815.185C826.17 159.737 837.917 160.525 840.969 161.312Z" fill="white"/>
<path d="M700.124 95.2796C699.674 113.035 701.025 111.132 688.111 111.767C683.907 111.925 683.907 111.925 683.907 123.815V135.705H692.166H700.425V170.105C700.425 208.152 701.626 213.859 710.035 220.993C715.441 225.274 727.604 227.969 740.367 227.334L750.728 226.859V214.969V203.079L741.268 202.287C735.262 201.811 731.358 200.702 730.457 199.116C729.706 197.848 728.955 183.105 728.955 166.301V135.863L740.668 135.387L752.23 134.912L752.681 123.339C753.131 110.34 754.482 111.45 737.664 111.925L728.955 112.084V96.2307C728.955 82.1216 728.655 80.2193 726.402 80.2193C724.901 80.0608 718.444 79.9022 712.137 79.7437L700.575 79.4266L700.124 95.2796Z" fill="white"/>
<path d="M1016.13 80.6354C1015.83 81.4289 1015.38 88.5701 1015.23 96.5047L1014.77 110.787L1008.73 110.946C1005.4 111.105 1001.78 111.263 1000.87 111.422C999.511 111.581 998.907 115.072 998.907 123.483V135.385H1007.22H1015.53V169.821C1015.53 200.131 1015.98 205.21 1018.4 210.923C1023.39 222.666 1033.66 227.268 1054.21 227.427C1060.11 227.427 1065.24 227.109 1065.55 226.792C1065.85 226.474 1066 220.762 1065.7 214.096L1065.09 202.036H1057.08C1044.24 202.036 1044.24 202.036 1044.24 166.171V135.385H1055.57H1066.91V123.483V111.581L1059.05 111.422C1043.64 111.105 1045 112.691 1044.54 95.3939L1044.09 80.0006L1030.34 79.5246C1022.18 79.2072 1016.44 79.6833 1016.13 80.6354Z" fill="white"/>
<path d="M612.278 110.477C602.137 114.17 594.417 120.431 588.969 129.582C581.704 141.784 582.46 142.747 597.445 142.747C607.434 142.747 610.613 142.266 611.218 140.339C612.883 136.004 621.662 131.509 628.927 131.509C643.003 131.509 648.149 137.77 648.149 154.467V164.743L641.035 161.211C631.197 156.233 621.813 155.11 609.402 157.197C584.277 161.532 571.714 179.031 577.163 202.632C579.433 212.907 588.515 223.022 598.958 226.714C613.034 231.852 634.527 229.444 644.971 221.577L649.663 218.045V222.861V227.838H663.285H676.907V184.008V140.179L672.82 131.348C665.253 115.936 650.117 107.427 630.138 107.427C624.538 107.587 616.667 108.872 612.278 110.477ZM639.825 178.71C645.727 181.44 648.149 185.453 648.149 192.839C648.149 207.93 621.964 215.315 608.796 204.077C604.861 200.706 603.196 189.788 605.769 184.651C606.677 182.563 609.705 179.995 612.278 178.871C618.635 175.981 633.316 175.82 639.825 178.71Z" fill="white"/>
<path d="M924.812 110.659C914.147 114.325 906.036 120.54 900.479 129.464C893.269 140.619 891.767 147.79 891.917 170.26C891.917 188.268 892.217 190.977 895.672 198.945C901.079 211.216 907.689 218.706 917.752 223.965C925.713 228.108 927.666 228.427 943.588 228.427C958.759 228.267 961.763 227.789 968.372 224.443C977.685 219.502 985.646 211.216 990.302 201.176C993.607 194.005 993.907 191.614 993.907 168.666C993.907 144.922 993.757 143.647 989.851 135.998C984.744 125.639 976.333 117.193 966.87 112.731C956.956 107.95 935.777 106.994 924.812 110.659ZM955.604 134.882C964.767 139.822 966.87 145.878 966.87 168.666C966.87 185.877 966.419 189.383 963.866 194.164C955.154 209.941 930.069 208.985 922.108 192.571C919.855 187.949 919.555 183.646 919.855 167.073C920.306 149.065 920.606 146.675 923.911 141.735C925.864 138.866 929.619 135.52 932.172 134.245C938.631 131.217 949.446 131.535 955.604 134.882Z" fill="white"/>
<path d="M88.4916 135.448C86.3378 136.73 85.907 139.452 85.907 153.387C86.0506 163.798 86.6249 170.685 87.7736 172.287C90.2147 175.65 107.015 183.018 119.363 185.901C139.179 190.546 159.138 188.784 180.963 180.615C197.333 174.369 197.907 173.568 197.907 154.668C197.907 141.535 197.476 138.491 195.322 136.249C192.738 133.847 192.02 133.847 183.261 137.53C171.774 142.335 152.82 146.5 142.051 146.5C127.835 146.5 113.333 142.976 93.0865 134.647C91.9378 134.167 89.7839 134.487 88.4916 135.448Z" fill="white"/>
</svg>
