<svg width="664" height="615" viewBox="0 0 664 615" fill="none" xmlns="http://www.w3.org/2000/svg">
<g clip-path="url(#clip0_102_5)">
<path d="M664 0H0V615H664V0Z" fill="black"/>
<path d="M300.571 93.8279C222.467 108.996 168.945 178.658 181.081 249.162C185.748 276.971 202.863 305.903 226.201 326.97L245.494 344.104L225.889 353.374C215.31 358.43 196.951 370.228 185.748 379.496C144.362 413.765 121.024 455.9 114.178 508.708L112 525H134.093C154.942 525 156.187 524.718 156.187 518.539C156.498 504.775 166.144 471.911 174.857 455.9C195.706 417.418 230.246 389.89 275.367 375.846C356.894 350.283 449.935 383.991 487.276 452.248C497.545 471.35 507.502 503.652 507.814 518.539C507.814 524.718 509.059 525 529.907 525H552L549.822 507.304C544.22 462.923 523.995 422.473 491.633 391.575C473.584 373.879 438.732 350.565 424.729 346.913C418.506 345.228 419.44 343.542 437.488 327.251C473.584 294.948 490.388 251.129 482.92 208.714C472.962 151.692 424.729 105.625 361.873 93.547C336.979 88.7719 325.465 88.7719 300.571 93.8279ZM376.498 138.771C399.835 148.321 421.307 167.703 431.887 189.051C439.356 203.376 440.6 209.837 440.6 228.657C440.6 255.341 431.576 275.848 411.661 295.229C358.45 347.756 265.098 333.149 231.491 267.14C219.977 244.106 219.977 212.928 232.113 189.332C246.427 160.962 275.055 139.333 307.729 131.749C326.4 127.535 356.894 130.625 376.498 138.771Z" fill="#F7F8FB"/>
</g>
<defs>
<clipPath id="clip0_102_5">
<rect width="664" height="615" fill="white"/>
</clipPath>
</defs>
</svg>
